<?xml version="1.0" encoding="utf-8"?>
<!-- Generator: Adobe Illustrator 23.1.0, SVG Export Plug-In . SVG Version: 6.00 Build 0)  -->
<svg version="1.1" id="Layer_1" xmlns="http://www.w3.org/2000/svg" xmlns:xlink="http://www.w3.org/1999/xlink" x="0px" y="0px"
	 viewBox="0 0 355 95" style="enable-background:new 0 0 355 95;" xml:space="preserve">
<style type="text/css">
	.st0{fill:#010101;}
</style>
<g>
	<g>
		<g>
			<path class="st0" d="M340.9,51.7l3.7-8.3c0.7-1.6,1-2,1.7-2.2v-0.6h-3.9v0.6c1.3,0.3,1.4,0.9,0.8,2.3l-1.5,3.6l-1.9-4.2
				c-0.4-0.9-0.3-1.5,1-1.6v-0.6h-5.2v0.6c0.6,0.2,0.9,0.4,1.4,1.5l3.3,7.1l-0.6,1.2c-0.3,0.7-0.6,1.2-0.9,1.5
				c-0.2-0.8-0.7-1.2-1.4-1.2c-0.7,0-1.3,0.5-1.3,1.4s0.8,1.6,1.6,1.6C339.2,54.4,340,53.8,340.9,51.7 M335.6,49.2l-0.3-0.6
				c-0.5,0.2-1,0.4-1.4,0.4c-0.9,0-1.2-0.5-1.2-1.1v-6h2.5v-1.1h-2.5V39h-0.4l-3.6,2.3v0.6h1.4v6.5c0,1.3,0.7,2,2.2,2
				C333.6,50.3,334.7,49.9,335.6,49.2 M328.1,49.5c-1.2-0.2-1.4-0.4-1.4-1.5v-7.6h-1l-2.9,1.9v0.4h1.4V48c0,1.1-0.2,1.3-1.4,1.5v0.6
				h5.3V49.5z M325.3,38.9c0.8,0,1.5-0.7,1.5-1.5s-0.6-1.4-1.4-1.4c-0.9,0-1.5,0.7-1.5,1.5S324.5,38.9,325.3,38.9 M321.8,47.2
				c0-1.8-1.5-2.4-3-2.9c-1.4-0.5-2.4-0.7-2.4-1.8c0-0.6,0.4-1.1,1.2-1.1c1,0,1.9,0.6,3,1.8l0.5-0.2l-0.8-2.5H320l-0.4,0.3
				c-0.6-0.2-1.2-0.4-1.9-0.4c-2.1,0-3.5,1.2-3.5,3s1.5,2.4,3,2.8c1.4,0.5,2.4,0.7,2.4,1.8c0,0.7-0.5,1.2-1.4,1.2
				c-1.3,0-2.3-0.9-3.6-2.4l-0.5,0.2l0.8,3.1h0.3l0.6-0.4c0.7,0.3,1.4,0.5,2.2,0.5C320.2,50.3,321.8,49.1,321.8,47.2 M311.5,49.5
				c-1.3-0.2-1.5-0.5-1.5-1.7v-4.1c0.4-0.7,0.8-1.2,1.2-1.6c0,0.8,0.5,1.3,1.2,1.3s1.3-0.5,1.3-1.6c0-0.9-0.5-1.4-1.4-1.4
				c-1,0-1.7,0.8-2.4,2v-2H309l-2.9,1.9v0.4h1.4V48c0,1.1-0.2,1.4-1.3,1.5v0.6h5.3L311.5,49.5z M299.1,44.1c0-1.6,0.7-2.6,2-2.6
				c0.9,0,1.5,0.7,1.7,1.9l-3.7,1.3C299.1,44.6,299.1,44.4,299.1,44.1 M305.3,48.4l-0.5-0.4c-0.5,0.6-1.3,1-2.3,1
				c-1.8,0-2.9-1.4-3.2-3.2l5.9-2c-0.1-2.1-1.7-3.2-3.6-3.2c-2.8,0-4.8,2.2-4.8,5c0,2.7,1.8,4.8,4.8,4.8
				C303.5,50.3,304.6,49.5,305.3,48.4 M294.9,43.5c0.7-1.6,1-2,1.7-2.2v-0.6h-3.9v0.6c1.3,0.3,1.4,0.9,0.8,2.3l-1.5,3.6l-1.9-4.2
				c-0.4-0.9-0.3-1.5,1-1.6v-0.6h-5.2v0.6c0.6,0.2,0.9,0.4,1.4,1.5l3.4,7.3h1L294.9,43.5z M285.9,49.6c-1.2-0.2-1.4-0.4-1.4-1.5
				v-7.6h-1l-2.9,1.9v0.4h1.4v5.3c0,1.1-0.2,1.3-1.4,1.5v0.6h5.3V49.6z M283,39c0.8,0,1.5-0.7,1.5-1.5s-0.6-1.4-1.4-1.4
				c-0.9,0-1.5,0.7-1.5,1.5C281.6,38.3,282.2,39,283,39 M273,49.6c-1.1-0.2-1.3-0.4-1.3-1.5v-4.6c1-0.9,1.8-1.3,2.5-1.3
				c1,0,1.2,0.5,1.3,1.4v4.5c0,1.1-0.2,1.4-1.3,1.5v0.6h5.1v-0.6c-1.1-0.2-1.3-0.4-1.3-1.5v-4.7c0-1.6-0.7-2.7-2.7-2.7
				c-1.2,0-2.4,0.8-3.6,1.8v-1.9h-0.9l-2.9,1.9v0.4h1.4v5.3c0,1.1-0.2,1.4-1.3,1.5v0.6h5.1L273,49.6z M251.4,38v5.9
				c0,3.8,2,6.5,7.1,6.5s7.1-2.7,7-6.5v-4.8c0-2.3,0.6-2.9,1.8-3.2v-0.6h-4.8v0.6c1.1,0.3,1.8,0.9,1.8,3.2v4.8
				c0,3.4-1.8,4.9-5.1,4.9c-3.3,0-5.1-1.5-5.1-4.9v-6c0-1.5,0.4-1.8,1.7-1.9v-0.7h-6V36C251,36.2,251.4,36.5,251.4,38"/>
			<path class="st0" d="M235.5,49.7c-1.1-0.2-1.3-0.4-1.3-1.5v-4.6c1-0.9,1.8-1.3,2.5-1.3c1,0,1.2,0.5,1.3,1.4v4.5
				c0,1.1-0.2,1.4-1.3,1.5v0.6h5.1v-0.6c-1.1-0.2-1.3-0.4-1.3-1.5v-4.7c0-1.6-0.7-2.7-2.7-2.7c-1.2,0-2.4,0.8-3.6,1.8v-1.9h-0.9
				l-2.9,1.9V43h1.4v5.3c0,1.1-0.2,1.4-1.3,1.5v0.6h5.1L235.5,49.7z M227.6,49.7c-1.3-0.2-1.5-0.5-1.5-1.7v-4.1
				c0.4-0.7,0.8-1.2,1.2-1.6c0,0.8,0.5,1.3,1.2,1.3s1.3-0.5,1.3-1.6c0-0.9-0.5-1.4-1.4-1.4c-1,0-1.7,0.8-2.4,2v-2h-0.9l-2.9,1.9v0.4
				h1.4v5.3c0,1.1-0.2,1.4-1.3,1.5v0.6h5.3L227.6,49.7z M215.2,44.3c0-1.6,0.7-2.6,2-2.6c0.9,0,1.5,0.7,1.7,1.9l-3.7,1.3
				C215.2,44.7,215.2,44.5,215.2,44.3 M221.4,48.5l-0.5-0.4c-0.5,0.6-1.3,1-2.3,1c-1.8,0-2.9-1.4-3.2-3.2l5.9-2
				c-0.1-2.1-1.7-3.2-3.6-3.2c-2.8,0-4.8,2.2-4.8,5c0,2.7,1.8,4.8,4.8,4.8C219.6,50.5,220.8,49.7,221.4,48.5 M212.3,49.4l-0.3-0.6
				c-0.5,0.2-1,0.4-1.4,0.4c-0.9,0-1.2-0.5-1.2-1.1v-6h2.5V41h-2.5v-1.8H209l-3.6,2.3v0.6h1.4v6.5c0,1.3,0.7,2,2.2,2
				C210.2,50.5,211.3,50.1,212.3,49.4 M204.8,47.4c0-1.8-1.5-2.4-3-2.9c-1.4-0.5-2.4-0.7-2.4-1.8c0-0.6,0.4-1.1,1.2-1.1
				c1,0,1.9,0.6,3,1.8l0.5-0.2l-0.8-2.5H203l-0.4,0.3c-0.6-0.2-1.2-0.4-1.9-0.4c-2.1,0-3.5,1.2-3.5,3s1.5,2.4,3,2.8
				c1.4,0.5,2.4,0.7,2.4,1.8c0,0.7-0.5,1.2-1.4,1.2c-1.3,0-2.3-0.9-3.6-2.4l-0.5,0.2l0.8,3.1h0.3l0.6-0.4c0.7,0.3,1.4,0.5,2.2,0.5
				C203.1,50.5,204.8,49.3,204.8,47.4 M189.5,47.8c0-1,0.5-1.5,2.8-2.1v2.9c-0.6,0.4-1,0.6-1.5,0.6C190,49.2,189.5,48.8,189.5,47.8
				 M193.9,50.5c0.9,0,1.8-0.4,2.4-0.8l-0.2-0.6c-1,0.2-1.3,0-1.3-0.6v-5.3c0-1.6-0.7-2.4-2.9-2.4c-2.5,0-4.4,1.4-4.4,2.6
				c0,0.6,0.4,1.1,1.1,1.1c0.8,0,1.2-0.5,1.3-1.1s-0.1-1.1-0.4-1.3c0.5-0.2,1-0.4,1.5-0.4c0.9,0,1.3,0.3,1.3,1.1v2
				c-3.5,0.9-5.2,1.7-5.2,3.5c0,1.4,0.9,2.2,2.4,2.2c0.9,0,2-0.4,2.9-1.1C192.6,50.1,193,50.5,193.9,50.5 M179.8,44.4
				c0-1.6,0.7-2.6,2-2.6c0.9,0,1.5,0.7,1.7,1.9l-3.7,1.3C179.8,44.8,179.8,44.6,179.8,44.4 M186,48.6l-0.5-0.4c-0.5,0.6-1.3,1-2.3,1
				c-1.8,0-2.9-1.4-3.2-3.2l5.9-2c-0.1-2.1-1.7-3.2-3.6-3.2c-2.8,0-4.8,2.2-4.8,5c0,2.7,1.8,4.8,4.8,4.8
				C184.2,50.6,185.3,49.7,186,48.6 M170.2,49.8c-1.1-0.2-1.3-0.4-1.3-1.5v-4.6c1-0.9,1.7-1.3,2.5-1.3c1,0,1.2,0.5,1.3,1.4v4.5
				c0,1.1-0.2,1.4-1.3,1.5v0.6h5.1v-0.6c-1.1-0.2-1.3-0.4-1.3-1.5v-4.7c0-1.6-0.7-2.7-2.7-2.7c-1.2,0-2.4,0.7-3.6,1.7v-7.9h-0.7
				l-3.2,2.1v0.4h1.4v11.1c0,1.1-0.2,1.4-1.3,1.5v0.6h5.1V49.8z M164.5,49.5l-0.3-0.6c-0.5,0.2-1,0.4-1.4,0.4
				c-0.9,0-1.2-0.5-1.2-1.1v-6h2.5v-1.1h-2.5v-1.8h-0.4l-3.6,2.3v0.6h1.4v6.5c0,1.3,0.7,2,2.2,2C162.5,50.6,163.6,50.2,164.5,49.5
				 M154.8,49.8c-1.3-0.2-1.5-0.5-1.5-1.7V44c0.4-0.7,0.8-1.2,1.2-1.6c0,0.8,0.5,1.3,1.2,1.3s1.3-0.5,1.3-1.6c0-0.9-0.5-1.4-1.4-1.4
				c-1,0-1.7,0.8-2.4,2v-2h-0.9l-2.9,1.9V43h1.4v5.3c0,1.1-0.2,1.4-1.3,1.5v0.6h5.3L154.8,49.8z M140.5,44.7c0-1.8,0.8-2.9,2.4-2.9
				c2.1,0,2.7,2.6,2.7,4.9c0,1.8-0.8,2.9-2.4,2.9C141.1,49.7,140.5,47.1,140.5,44.7 M148.1,45.6c0-2.6-1.8-4.8-4.9-4.8
				c-3.2,0-5.1,2.3-5.1,5c0,2.6,1.8,4.8,4.9,4.8C146.2,50.6,148.1,48.3,148.1,45.6 M135.2,39.4c0-2.3,0.6-2.9,1.8-3.2v-0.6h-4.8v0.6
				c1.1,0.3,1.8,0.9,1.8,3.2v7l-10.1-10.2c-0.6-0.6-0.8-0.6-1.1-0.6h-3.7v0.6c0.8,0.1,1.3,0.4,2.2,1.3c0.3,0.3,0.6,0.6,0.6,1.2v7.9
				c0,2.3-0.6,2.9-1.8,3.2v0.6h4.8v-0.6c-1.1-0.3-1.8-0.9-1.8-3.2v-7.5l11.4,11.4h0.8L135.2,39.4z"/>
		</g>
		<g>
			<path class="st0" d="M125.5,83.1h9.5v4.8h-15.1V65.5h5.6V83.1z"/>
			<path class="st0" d="M142.4,65.6c0,1.6-1.4,2.9-3.1,2.9c-1.6,0-3.1-1.3-3.1-2.9s1.4-2.9,3.1-2.9C140.9,62.7,142.4,64,142.4,65.6z
				 M142,87.9h-5.4V70.8h5.4V87.9z"/>
			<path class="st0" d="M150.5,72.3c1.2-1.3,2.8-2,4.6-2c4.5,0,7.6,3.7,7.6,9.1c0,5.4-3.2,9-7.6,9c-2.2,0-3.7-0.8-4.8-2V88h-5.2
				V65.6h5.4V72.3z M150.1,79.4c0,3.3,1.4,4.8,3.4,4.8c2.2,0,3.5-1.7,3.5-4.8c0-3.3-1.3-4.9-3.4-4.9C151.4,74.5,150.1,76,150.1,79.4
				z"/>
			<path class="st0" d="M176.1,70.4v5.1c-0.6,0-0.8,0-1.1,0c-2.6,0-4.6,1.1-4.6,5.8V88H165V70.9h5.2v2.8c1.2-2.4,2.8-3.2,4.6-3.2
				C175.2,70.3,175.6,70.3,176.1,70.4z"/>
			<path class="st0" d="M192.6,75.7v8.4c0,1.4,0.1,2.6,0.6,3.8H188c-0.3-0.5-0.5-1.1-0.6-1.7c-1.2,1.6-2.9,2.1-4.9,2.1
				c-3.6,0-5.7-2.2-5.7-5.2c0-3.3,2-5.2,7.2-5.9l3.2-0.4V76c0-1.5-0.4-2.1-2.1-2.1c-1.6,0-2.3,0.6-2.3,2h-5.3
				c0.1-3.7,2.9-5.6,7.7-5.6C190.5,70.3,192.6,72.3,192.6,75.7z M185.2,80.3c-2.2,0.3-3,1-3,2.2c0,1.1,0.7,1.8,2,1.8
				c1.7,0,3-1.2,3-2.8V80L185.2,80.3z"/>
			<path class="st0" d="M206.7,70.4v5.1c-0.6,0-0.8,0-1.1,0c-2.6,0-4.6,1.1-4.6,5.8V88h-5.4V70.9h5.2v2.8c1.2-2.4,2.8-3.2,4.6-3.2
				C205.9,70.3,206.3,70.3,206.7,70.4z"/>
			<path class="st0" d="M219.7,88.3c-1,3.5-2.5,5.8-7.2,5.8c-1.1,0-1.9-0.1-2.6-0.3v-3.6c0.9,0.1,1.2,0.1,1.6,0.1
				c2.3,0,2.9-0.4,3.2-2.3h-2.1l-5.5-17.1h6.1l2.9,13.4l2.7-13.4h5.9L219.7,88.3z"/>
		</g>
		<path d="M101.5,28c0-13.7,4.6-18.2,13.8-21.7V4H85v2.3c9.2,3.5,13.8,8,13.8,21.7v40.3L34.7,7.1c-2.9-2.7-3.7-3-5.6-3h-24v2.3
			c5.3,0.6,8.4,2,16.1,9.5l2.9,2.8v45.9c0,13.7-4.6,18.2-13.8,21.7v2.3h30.3v-2.3c-9.2-3.5-13.8-8-13.8-21.7V20.8l72.5,68.3h2.3
			L101.5,28L101.5,28z"/>
	</g>
</g>
</svg>
