<svg xmlns="http://www.w3.org/2000/svg" xmlns:xlink="http://www.w3.org/1999/xlink" version="1.1" id="Layer_1" x="0px" y="0px" width="173px" height="16.063px" viewBox="0 0 173 16.063" enable-background="new 0 0 173 16.063" xml:space="preserve">
<g>
	<g>
		<g>
			<g>
				<g>
					<path fill="#333333" d="M111.327 0.154v0.399c-1.765 0.128-1.765 1.055-1.765 2.546v3.4c0 1.6 0 2.364-0.473 3.2 c-0.636 1.163-2.072 2.072-4.235 2.072c-2.491 0-3.602-1.073-4.073-1.764c-0.601-0.89-0.601-1.728-0.601-3.764V3.189 c0-2.436-0.018-2.636-1.617-2.636H98.29V0.154h5.2v0.399c-1.8 0-1.854 0-1.854 2.601v3.182c0 1.7 0 2.7 0.5 3.5 c0.418 0.7 1.4 1.4 3.1 1.418c1.163 0 2.601-0.418 3.382-1.636c0.509-0.782 0.509-1.619 0.509-3.146v-3.49 c0-1.455 0-2.254-1.836-2.382V0.154H111.327z"/>
					<path fill="#333333" d="M113.308 4.026c0.146 0.4 0.2 1.1 0.2 1.509c0.926-1.018 1.745-1.509 2.8-1.509 c1.672 0 2.3 1.2 2.3 2.382v2.691c0 2 0 2.1 1.2 2.091v0.4h-3.728v-0.4c1.256 0 1.256-0.109 1.256-2.091V6.753 c0-1.654-0.582-2.182-1.473-2.182c-1.037 0-1.71 0.873-2.327 1.563v2.964c0 2 0 2.1 1.2 2.091v0.4h-3.673v-0.4 c1.2 0 1.2-0.109 1.2-2.091V6.935c0-1.981 0-2.09-1.2-2.09v-0.4c0.746-0.109 1.691-0.292 2-0.418H113.308z"/>
					<path fill="#333333" d="M123.179 9.808c0 1.2 0.1 1.4 1 1.382h0.272v0.4h-3.872v-0.4h0.308 c0.928 0 1.109-0.146 1.109-1.382V6.899c0-1.981-0.108-2-1.417-2v-0.4c0.545-0.018 1.654-0.255 2.418-0.473h0.181V9.808z"/>
					<path fill="#333333" d="M128.578 11.88l-2.581-5.818c-0.473-1.055-0.654-1.309-1.327-1.345v-0.4h3.272v0.4 c-0.473 0-0.928 0-0.928 0.437c0 0.1 0 0.2 0.2 0.618l2.11 4.746l1.765-3.945c0.254-0.583 0.416-0.982 0.416-1.218 c0-0.545-0.563-0.618-0.89-0.637v-0.4h2.454v0.4c-0.763 0.055-1.055 0.728-1.619 1.963l-2.363 5.2H128.578z"/>
					<path fill="#333333" d="M134.669 7.099c-0.019 0.164-0.037 0.418-0.037 0.545c0 2.3 0.7 3.8 2.5 3.8 c1.02 0 1.837-0.455 2.346-1.455h0.419c-0.454 1.2-1.528 1.927-3.001 1.927c-2.036 0-3.727-1.527-3.727-3.873 c0-2.254 1.473-3.981 3.655-3.981c2.054 0 3.1 1.3 3.1 3.073H134.669z M134.705 6.735h3.891 c-0.019-0.854-0.255-2.309-1.818-2.309C135.342 4.4 134.8 5.7 134.7 6.735z"/>
					<path fill="#333333" d="M143.505 9.099c0 1.9 0 2.1 1.1 2.091h0.256v0.4h-3.855v-0.4c1.254 0 1.254-0.072 1.254-2.091 V7.044c0-2.018 0-2.091-1.254-2.091v-0.4c0.818-0.109 1.765-0.4 2.055-0.491l0.128-0.037c0.09 0.3 0.3 0.9 0.3 1.9 c0.564-1.345 1.872-1.909 2.8-1.909c0.945 0 1.4 0.7 1.4 1.109c0 0.327-0.237 0.654-0.618 0.7 c-0.401 0-0.602-0.273-0.71-0.582c-0.072-0.201-0.218-0.545-0.636-0.545c-0.727 0-2.145 0.873-2.145 2.727V9.099z"/>
					<path fill="#333333" d="M148.285 9.426h0.345c0.183 0.9 0.8 2.1 2.5 2.054c1.508 0 1.691-0.926 1.691-1.29 c0-0.891-0.946-1.309-2.093-1.728c-1.673-0.618-2.418-1.145-2.418-2.418c0-0.927 0.692-2.018 2.328-2.018 c0.854 0 1.5 0.3 1.9 0.763c0.146-0.163 0.327-0.6 0.346-0.636h0.327v2.255h-0.327c-0.163-0.836-0.892-1.982-2.181-1.982 c-1.185 0-1.583 0.582-1.583 1.109c0 0.9 0.7 1.2 2 1.636c1.455 0.5 2.6 1.1 2.6 2.6 c0 1.236-0.891 2.145-2.545 2.145c-1.072 0-1.709-0.418-2.127-0.818c-0.183 0.201-0.346 0.582-0.383 0.746h-0.345V9.426z"/>
					<path fill="#333333" d="M157.448 9.808c0 1.2 0.1 1.4 1 1.382h0.272v0.4h-3.873v-0.4h0.31 c0.927 0 1.108-0.146 1.108-1.382V6.899c0-1.981-0.108-2-1.418-2v-0.4c0.545-0.018 1.654-0.255 2.418-0.473h0.183V9.808z"/>
					<path fill="#333333" d="M161.738 4.717v4.399c0 1 0 2.1 1.1 2.146c0.618 0 0.944-0.492 1.108-0.728l0.273 0.2 c-0.564 1.182-1.728 1.182-1.854 1.182c-0.51 0-0.909-0.109-1.201-0.345c-0.473-0.364-0.689-1.036-0.689-2.109V4.717h-1.055 v-0.4c0.798-0.036 1.762-0.563 2.036-2.272h0.29v2.272h2.199v0.4H161.738z"/>
					<path fill="#333333" d="M171.174 5.898c0.127-0.291 0.256-0.562 0.256-0.708c0-0.381-0.656-0.473-0.983-0.473v-0.4h2.545v0.4 c-0.91 0.055-1.09 0.509-1.543 1.6l-3.238 7.819c-0.474 1.127-0.908 1.927-1.618 1.927c-0.29 0-0.563-0.183-0.563-0.528 c0-0.6 0.601-0.873 0.927-1.018c0.619-0.272 0.819-0.381 1.073-1.018l0.69-1.728l-2.729-5.854 c-0.417-0.891-0.562-1.181-1.416-1.2v-0.4h3.346v0.4c-0.454 0.037-0.892 0.055-0.892 0.364c0 0.1 0.2 0.6 0.3 0.9 l2 4.255L171.174 5.898z"/>
				</g>
				<circle fill="#333333" cx="122.4" cy="1.7" r="0.8"/>
				<circle fill="#333333" cx="156.7" cy="1.7" r="0.8"/>
			</g>
			<g>
				<path fill="#333333" d="M2.392 1.127v8.145c0 1.2 0.3 1.9 2.1 1.928v0.399H0.01V11.2c1.982-0.092 1.945-0.909 1.945-1.928 V3.036c0-2.309-0.127-2.473-1.781-2.473v-0.4h3.271l6.819 9.054V2.291c0-0.964-0.127-1.709-2.055-1.727v-0.4h4.363v0.4 C10.81 0.7 10.7 1.3 10.7 2.418v9.454h-0.253L2.392 1.127z"/>
				<path fill="#333333" d="M16.281 4.036c2.146 0 3.9 1.6 3.9 3.927c0 2.582-1.946 3.928-3.892 3.9 c-1.873 0-3.873-1.255-3.873-3.946C12.408 5.7 14.1 4 16.3 4.036z M16.281 11.454c1.672 0 2.418-1.146 2.418-3.436 c0-1.964-0.527-3.546-2.418-3.546c-1.836 0-2.399 1.545-2.399 3.528C13.882 10.3 14.6 11.5 16.3 11.454z"/>
				<path fill="#333333" d="M23.408 9.108c0 1.9 0 2.1 1.1 2.091h0.255v0.399h-3.855V11.2c1.254 0 1.254-0.073 1.254-2.091 V7.054c0-2.018 0-2.09-1.254-2.09v-0.4c0.818-0.108 1.763-0.399 2.054-0.491l0.127-0.036c0.091 0.3 0.3 0.9 0.3 1.9 c0.563-1.345 1.873-1.908 2.799-1.908c0.946 0 1.4 0.7 1.4 1.109c0 0.328-0.236 0.654-0.618 0.7 c-0.4 0-0.601-0.272-0.71-0.581c-0.073-0.2-0.218-0.546-0.635-0.546c-0.728 0-2.146 0.873-2.146 2.727V9.108z"/>
				<path fill="#333333" d="M30.461 4.727v4.4c0 1 0 2.1 1.1 2.145c0.618 0 0.945-0.491 1.109-0.728l0.272 0.2 c-0.563 1.183-1.728 1.183-1.854 1.183c-0.51 0-0.909-0.11-1.2-0.346c-0.474-0.364-0.691-1.037-0.691-2.109V4.727h-1.054v-0.4 c0.8-0.036 1.764-0.563 2.036-2.272h0.29v2.272h2.201v0.4H30.461z"/>
				<path fill="#333333" d="M41.188 9.108c0 2 0 2.1 1.2 2.091v0.399h-3.764V11.2c1.254 0 1.254-0.092 1.254-2.091V6.763 c0-1.691-0.509-2.181-1.581-2.181c-0.837 0-1.636 0.854-2.218 1.6v2.927c0 1.9 0 2.1 1.1 2.091v0.399h-3.69V11.2 c1.273 0 1.273-0.073 1.273-2.091V2.472c0-1.272 0-1.69-1.2-1.69v-0.4c0.745 0 1.745-0.164 2.327-0.382h0.127v5.545 c0.908-0.963 1.709-1.509 2.654-1.509c1.618 0 2.4 0.9 2.4 2.508V9.108z"/>
				<path fill="#333333" d="M44.224 7.108c-0.018 0.165-0.036 0.419-0.036 0.546c0 2.3 0.7 3.8 2.5 3.8 c1.019 0 1.837-0.455 2.346-1.454h0.418c-0.454 1.199-1.526 1.927-2.999 1.927c-2.036 0-3.728-1.528-3.728-3.873 c0-2.254 1.473-3.982 3.654-3.982c2.055 0 3.1 1.3 3.1 3.072H44.224z M44.261 6.745h3.89 c-0.018-0.854-0.254-2.309-1.818-2.309C44.896 4.4 44.4 5.7 44.3 6.745z"/>
				<path fill="#333333" d="M58.865 9.436h0.346c0.182 0.9 0.8 2.1 2.5 2.053c1.51 0 1.69-0.927 1.69-1.289 c0-0.892-0.945-1.31-2.091-1.728c-1.673-0.618-2.419-1.146-2.419-2.418c0-0.927 0.691-2.018 2.328-2.018 c0.854 0 1.5 0.3 1.9 0.764c0.146-0.164 0.327-0.601 0.346-0.636h0.327v2.254h-0.327 c-0.164-0.836-0.892-1.981-2.182-1.981c-1.183 0-1.582 0.582-1.582 1.109c0 0.9 0.7 1.2 2 1.6 c1.454 0.5 2.6 1.1 2.6 2.564c0 1.235-0.891 2.145-2.545 2.145c-1.073 0-1.709-0.42-2.128-0.819 c-0.182 0.201-0.345 0.583-0.381 0.746h-0.346V9.436z"/>
				<path fill="#333333" d="M67.592 4.727v4.4c0 1 0 2.1 1.1 2.145c0.617 0 0.944-0.491 1.109-0.728l0.272 0.2 c-0.564 1.183-1.728 1.183-1.855 1.183c-0.509 0-0.908-0.11-1.2-0.346c-0.472-0.364-0.69-1.037-0.69-2.109V4.727h-1.055v-0.4 c0.8-0.036 1.765-0.563 2.037-2.272h0.291v2.272h2.2v0.4H67.592z"/>
				<path fill="#333333" d="M71.991 7.108c-0.019 0.165-0.037 0.419-0.037 0.546c0 2.3 0.7 3.8 2.5 3.8 c1.018 0 1.836-0.455 2.345-1.454h0.418c-0.453 1.199-1.526 1.927-3 1.927c-2.035 0-3.726-1.528-3.726-3.873 c0-2.254 1.472-3.982 3.652-3.982c2.056 0 3.1 1.3 3.1 3.072H71.991z M72.027 6.745h3.891 c-0.02-0.854-0.255-2.309-1.818-2.309C72.664 4.4 72.1 5.7 72 6.745z"/>
				<path fill="#333333" d="M80.608 9.108c0 1.9 0 2.1 1.1 2.091h0.255v0.399h-3.855V11.2c1.256 0 1.256-0.073 1.256-2.091 V7.054c0-2.018 0-2.09-1.256-2.09v-0.4c0.818-0.108 1.764-0.399 2.055-0.491l0.127-0.036c0.092 0.3 0.3 0.9 0.3 1.9 c0.564-1.345 1.871-1.908 2.8-1.908c0.945 0 1.4 0.7 1.4 1.109c0 0.328-0.235 0.654-0.618 0.7 c-0.399 0-0.6-0.272-0.708-0.581c-0.073-0.2-0.22-0.546-0.637-0.546c-0.729 0-2.146 0.873-2.146 2.727V9.108z"/>
				<path fill="#333333" d="M87.59 4.036c0.145 0.4 0.2 1.1 0.2 1.509c0.927-1.018 1.745-1.509 2.801-1.509 c1.671 0 2.3 1.2 2.3 2.381v2.691c0 2 0 2.1 1.2 2.091v0.399h-3.727V11.2c1.255 0 1.255-0.109 1.255-2.091V6.763 c0-1.654-0.584-2.181-1.473-2.181c-1.036 0-1.709 0.873-2.327 1.562v2.964c0 2 0 2.1 1.2 2.091v0.399h-3.674V11.2 c1.2 0 1.2-0.109 1.2-2.091V6.945c0-1.982 0-2.091-1.2-2.091v-0.4c0.747-0.109 1.691-0.291 2-0.418H87.59z"/>
				<g>
					<path fill="#333333" d="M57.798 10.271c-0.146 0.854-0.518 0.905-0.735 0.905c-0.564 0-0.574-0.399-0.574-1.65V6.581 c0-1.072-0.139-2.545-2.646-2.545c-1.818 0-2.928 0.927-2.928 1.655c0 0.3 0.2 0.5 0.5 0.5 c0.473 0 0.654-0.346 0.764-0.745c0.127-0.491 0.399-1.037 1.563-1.037c1.363 0 1.5 0.9 1.5 1.945v0.455l-1.381 0.5 c-2.563 0.874-3.346 1.891-3.346 2.928c0 1 0.8 1.5 1.9 1.544c0.872 0 1.782-0.363 2.854-1.272 c0.091 0.4 0.3 1.3 1.4 1.272c1 0 1.437-0.69 1.473-1.509H57.798z M55.259 10.104c-0.73 0.633-1.72 1.136-2.393 1.1 c-0.771 0-1.146-0.559-1.146-1.23c0-1.005 0.949-1.918 2.491-2.421l1.048-0.334V10.104z"/>
				</g>
			</g>
		</g>
	</g>
</g>
</svg>
